<svg xmlns="http://www.w3.org/2000/svg" width="14.445" height="12.838" viewBox="0 0 14.445 12.838"><defs><style>.a{fill:#109dff;}</style></defs><path class="a" d="M10.1,2.091l2.262,2.262a.245.245,0,0,1,0,.346L6.881,10.176l-2.327.258A.488.488,0,0,1,4.015,9.9l.258-2.327L9.75,2.091A.245.245,0,0,1,10.1,2.091Zm4.063-.574L12.935.293a.981.981,0,0,0-1.384,0l-.888.888a.245.245,0,0,0,0,.346l2.262,2.262a.245.245,0,0,0,.346,0l.888-.888A.981.981,0,0,0,14.159,1.517ZM9.63,8.687V11.24H1.6V3.215H7.368a.308.308,0,0,0,.213-.088l1-1a.3.3,0,0,0-.213-.514H1.2A1.2,1.2,0,0,0,0,2.813v8.828a1.2,1.2,0,0,0,1.2,1.2h8.827a1.2,1.2,0,0,0,1.2-1.2V7.684a.3.3,0,0,0-.514-.213l-1,1A.308.308,0,0,0,9.63,8.687Z" transform="translate(0 -0.007)"/></svg>